# xmcd CD database file
#
# Track frame offsets:
#	150
#	25806
#	50035
#	104694
#	130462
#	158021
#	180580
#	207694
#	223238
#	249922
#	274528
#
# Disc length: 3808 seconds
#
# Revision: 1
# Processed by: cddbd v1.5.1PL2 Copyright (c) Steve Scherf et al.
# Submitted via: Feurio! 1.67 - http://www.feurio.com
#
DISCID=a60ede0b
DTITLE=Johnny Winter - 1977-09-07 New York, FM-Radio
DYEAR=1900
DGENRE=Blues-Rock
TTITLE0=Easy Rider
TTITLE1=Walking By Myself
TTITLE2=Mother Earth
TTITLE3=Bonnie Maronie
TTITLE4=Get Your Hands Off My Woman blues
TTITLE5=Messin' With the Kid
TTITLE6=Help Me
TTITLE7=Johnny B. Goode
TTITLE8=It's All over Now
TTITLE9=Jumping Jack Flash
TTITLE10=Outro With Band Intro
EXTD=
EXTT0=
EXTT1=
EXTT2=
EXTT3=
EXTT4=
EXTT5=
EXTT6=
EXTT7=
EXTT8=
EXTT9=
EXTT10=
PLAYORDER=
